<?xml version="1.0" encoding="utf-8"?>
<svg xmlns="http://www.w3.org/2000/svg" xmlns:xlink="http://www.w3.org/1999/xlink" height="200" width="190">
  <circle  cx="62"  cy="50" r="15" fill="white" />
  <circle  cx="20" cy="80"  r="15" fill="white" />
  <line    x1="62"  y1="50"   x2="70" y2="100" stroke="white"/>
  <line    x1="20"  y1="80"   x2="70" y2="100" stroke="white"/>
  <rect     x="55"  y="85"  width="30" height="30" fill="white" />


  <circle  cx="125" cy="40"  r="15" fill="white" />
  <circle  cx="175" cy="60"  r="15" fill="white" />
  <circle  cx="175" cy="135"  r="15" fill="white" />
  <line    x1="125"  y1="40"   x2="140" y2="100" stroke="white"/>
  <line    x1="175"  y1="60"   x2="140" y2="100" stroke="white"/>
  <line    x1="175"  y1="135"   x2="140" y2="100" stroke="white"/>
  <rect     x="125" y="85"  width="30" height="30" fill="white" />

  <circle  cx="65"  cy="185"  r="15" fill="white" />
  <circle  cx="130" cy="185"  r="15" fill="white" />
  <line    x1="65"  y1="185"   x2="100" y2="150" stroke="white"/>
  <line    x1="130" y1="185"   x2="100" y2="150" stroke="white"/>
  <rect     x="85"  y="135" width="30" height="30" fill="white" />

  <line    x1="70"  y1="100"  x2="140" y2="100" stroke="white"/>
  <line    x1="70"  y1="100"  x2="100" y2="150" stroke="white"/>
  <line    x1="100" y1="150"  x2="140" y2="100" stroke="white"/>

</svg>
